<?xml version="1.0" encoding="UTF-8" standalone="no"?>
<!DOCTYPE svg PUBLIC "-//W3C//DTD SVG 1.1//EN" "http://www.w3.org/Graphics/SVG/1.1/DTD/svg11.dtd">
<svg width="100%" height="100%" viewBox="0 0 1200 1200" version="1.1" xmlns="http://www.w3.org/2000/svg" xmlns:xlink="http://www.w3.org/1999/xlink" xml:space="preserve" xmlns:serif="http://www.serif.com/" style="fill-rule:evenodd;clip-rule:evenodd;stroke-linejoin:round;stroke-miterlimit:2;">
    <g>
        <path d="M175,25L0,200L200,0L150,0L175,25Z" style="fill:rgb(230,230,230);fill-rule:nonzero;"/>
        <path d="M150,50L100,0L50,0L125,75L150,50Z" style="fill:rgb(230,230,230);fill-rule:nonzero;"/>
        <path d="M100,100L0,0L0,50L75,125L100,100Z" style="fill:rgb(230,230,230);fill-rule:nonzero;"/>
        <path d="M50,150L0,100L0,150L25,175L50,150Z" style="fill:rgb(230,230,230);fill-rule:nonzero;"/>
        <path d="M400,200L225,25L250,0L200,0L400,200Z" style="fill:rgb(230,230,230);fill-rule:nonzero;"/>
        <path d="M575,25L400,200L600,0L550,0L575,25Z" style="fill:rgb(230,230,230);fill-rule:nonzero;"/>
        <path d="M550,50L500,0L450,0L525,75L550,50Z" style="fill:rgb(230,230,230);fill-rule:nonzero;"/>
        <path d="M275,75L350,0L300,0L250,50L275,75Z" style="fill:rgb(230,230,230);fill-rule:nonzero;"/>
        <path d="M325,125L400,50L475,125L500,100L400,0L300,100L325,125Z" style="fill:rgb(230,230,230);fill-rule:nonzero;"/>
        <path d="M425,175L450,150L400,100L350,150L375,175L400,150L425,175Z" style="fill:rgb(230,230,230);fill-rule:nonzero;"/>
        <path d="M800,200L625,25L650,0L600,0L800,200Z" style="fill:rgb(230,230,230);fill-rule:nonzero;"/>
        <path d="M975,25L800,200L1000,0L950,0L975,25Z" style="fill:rgb(230,230,230);fill-rule:nonzero;"/>
        <path d="M675,75L750,0L700,0L650,50L675,75Z" style="fill:rgb(230,230,230);fill-rule:nonzero;"/>
        <path d="M950,50L900,0L850,0L925,75L950,50Z" style="fill:rgb(230,230,230);fill-rule:nonzero;"/>
        <path d="M725,125L800,50L875,125L900,100L800,0L700,100L725,125Z" style="fill:rgb(230,230,230);fill-rule:nonzero;"/>
        <path d="M825,175L850,150L800,100L750,150L775,175L800,150L825,175Z" style="fill:rgb(230,230,230);fill-rule:nonzero;"/>
        <path d="M25,225L200,50L375,225L400,200L200,0L0,200L25,225Z" style="fill:rgb(230,230,230);fill-rule:nonzero;"/>
        <path d="M325,275L350,250L200,100L50,250L75,275L200,150L325,275Z" style="fill:rgb(230,230,230);fill-rule:nonzero;"/>
        <path d="M275,325L300,300L200,200L100,300L125,325L200,250L275,325Z" style="fill:rgb(230,230,230);fill-rule:nonzero;"/>
        <path d="M225,375L250,350L200,300L150,350L175,375L200,350L225,375Z" style="fill:rgb(230,230,230);fill-rule:nonzero;"/>
        <path d="M425,225L600,50L775,225L800,200L600,0L400,200L425,225Z" style="fill:rgb(230,230,230);fill-rule:nonzero;"/>
        <path d="M725,275L750,250L600,100L450,250L475,275L600,150L725,275Z" style="fill:rgb(230,230,230);fill-rule:nonzero;"/>
        <path d="M675,325L700,300L600,200L500,300L525,325L600,250L675,325Z" style="fill:rgb(230,230,230);fill-rule:nonzero;"/>
        <path d="M625,375L650,350L600,300L550,350L575,375L600,350L625,375Z" style="fill:rgb(230,230,230);fill-rule:nonzero;"/>
        <path d="M825,225L1000,50L1175,225L1200,200L1000,0L800,200L825,225Z" style="fill:rgb(230,230,230);fill-rule:nonzero;"/>
        <path d="M850,250L875,275L1000,150L1125,275L1150,250L1000,100L850,250Z" style="fill:rgb(230,230,230);fill-rule:nonzero;"/>
        <path d="M900,300L925,325L1000,250L1075,325L1100,300L1000,200L900,300Z" style="fill:rgb(230,230,230);fill-rule:nonzero;"/>
        <path d="M950,350L975,375L1000,350L1025,375L1050,350L1000,300L950,350Z" style="fill:rgb(230,230,230);fill-rule:nonzero;"/>
        <path d="M1200,200L1025,25L1050,0L1000,0L1200,200Z" style="fill:rgb(230,230,230);fill-rule:nonzero;"/>
        <path d="M1075,75L1150,0L1100,0L1050,50L1075,75Z" style="fill:rgb(230,230,230);fill-rule:nonzero;"/>
        <path d="M1125,125L1200,50L1200,0L1100,100L1125,125Z" style="fill:rgb(230,230,230);fill-rule:nonzero;"/>
        <path d="M1175,175L1200,150L1200,100L1150,150L1175,175Z" style="fill:rgb(230,230,230);fill-rule:nonzero;"/>
        <path d="M200,400L0,200L0,250L175,425L200,400Z" style="fill:rgb(230,230,230);fill-rule:nonzero;"/>
        <path d="M150,450L0,300L0,350L125,475L150,450Z" style="fill:rgb(230,230,230);fill-rule:nonzero;"/>
        <path d="M100,500L0,400L0,450L75,525L100,500Z" style="fill:rgb(230,230,230);fill-rule:nonzero;"/>
        <path d="M50,550L0,500L0,550L25,575L50,550Z" style="fill:rgb(230,230,230);fill-rule:nonzero;"/>
        <path d="M575,425L600,400L400,200L200,400L225,425L400,250L575,425Z" style="fill:rgb(230,230,230);fill-rule:nonzero;"/>
        <path d="M525,475L550,450L400,300L250,450L275,475L400,350L525,475Z" style="fill:rgb(230,230,230);fill-rule:nonzero;"/>
        <path d="M475,525L500,500L400,400L300,500L325,525L400,450L475,525Z" style="fill:rgb(230,230,230);fill-rule:nonzero;"/>
        <path d="M425,575L450,550L400,500L350,550L375,575L400,550L425,575Z" style="fill:rgb(230,230,230);fill-rule:nonzero;"/>
        <path d="M600,400L625,425L800,250L975,425L1000,400L800,200L600,400Z" style="fill:rgb(230,230,230);fill-rule:nonzero;"/>
        <path d="M650,450L675,475L800,350L925,475L950,450L800,300L650,450Z" style="fill:rgb(230,230,230);fill-rule:nonzero;"/>
        <path d="M700,500L725,525L800,450L875,525L900,500L800,400L700,500Z" style="fill:rgb(230,230,230);fill-rule:nonzero;"/>
        <path d="M750,550L775,575L800,550L825,575L850,550L800,500L750,550Z" style="fill:rgb(230,230,230);fill-rule:nonzero;"/>
        <path d="M200,450L375,625L400,600L200,400L0,600L25,625L200,450Z" style="fill:rgb(230,230,230);fill-rule:nonzero;"/>
        <path d="M325,675L350,650L200,500L50,650L75,675L200,550L325,675Z" style="fill:rgb(230,230,230);fill-rule:nonzero;"/>
        <path d="M275,725L300,700L200,600L100,700L125,725L200,650L275,725Z" style="fill:rgb(230,230,230);fill-rule:nonzero;"/>
        <path d="M225,775L250,750L200,700L150,750L175,775L200,750L225,775Z" style="fill:rgb(230,230,230);fill-rule:nonzero;"/>
        <path d="M400,600L425,625L600,450L775,625L800,600L600,400L400,600Z" style="fill:rgb(230,230,230);fill-rule:nonzero;"/>
        <path d="M450,650L475,675L600,550L725,675L750,650L600,500L450,650Z" style="fill:rgb(230,230,230);fill-rule:nonzero;"/>
        <path d="M500,700L525,725L600,650L675,725L700,700L600,600L500,700Z" style="fill:rgb(230,230,230);fill-rule:nonzero;"/>
        <path d="M550,750L575,775L600,750L625,775L650,750L600,700L550,750Z" style="fill:rgb(230,230,230);fill-rule:nonzero;"/>
        <path d="M800,600L825,625L1000,450L1175,625L1200,600L1000,400L800,600Z" style="fill:rgb(230,230,230);fill-rule:nonzero;"/>
        <path d="M850,650L875,675L1000,550L1125,675L1150,650L1000,500L850,650Z" style="fill:rgb(230,230,230);fill-rule:nonzero;"/>
        <path d="M900,700L925,725L1000,650L1075,725L1100,700L1000,600L900,700Z" style="fill:rgb(230,230,230);fill-rule:nonzero;"/>
        <path d="M950,750L975,775L1000,750L1025,775L1050,750L1000,700L950,750Z" style="fill:rgb(230,230,230);fill-rule:nonzero;"/>
        <path d="M1025,425L1200,250L1200,200L1000,400L1025,425Z" style="fill:rgb(230,230,230);fill-rule:nonzero;"/>
        <path d="M1075,475L1200,350L1200,300L1050,450L1075,475Z" style="fill:rgb(230,230,230);fill-rule:nonzero;"/>
        <path d="M1125,525L1200,450L1200,400L1100,500L1125,525Z" style="fill:rgb(230,230,230);fill-rule:nonzero;"/>
        <path d="M1175,575L1200,550L1200,500L1150,550L1175,575Z" style="fill:rgb(230,230,230);fill-rule:nonzero;"/>
        <path d="M200,800L0,600L0,650L175,825L200,800Z" style="fill:rgb(230,230,230);fill-rule:nonzero;"/>
        <path d="M150,850L0,700L0,750L125,875L150,850Z" style="fill:rgb(230,230,230);fill-rule:nonzero;"/>
        <path d="M100,900L0,800L0,850L75,925L100,900Z" style="fill:rgb(230,230,230);fill-rule:nonzero;"/>
        <path d="M50,950L0,900L0,950L25,975L50,950Z" style="fill:rgb(230,230,230);fill-rule:nonzero;"/>
        <path d="M575,825L600,800L400,600L200,800L225,825L400,650L575,825Z" style="fill:rgb(230,230,230);fill-rule:nonzero;"/>
        <path d="M525,875L550,850L400,700L250,850L275,875L400,750L525,875Z" style="fill:rgb(230,230,230);fill-rule:nonzero;"/>
        <path d="M475,925L500,900L400,800L300,900L325,925L400,850L475,925Z" style="fill:rgb(230,230,230);fill-rule:nonzero;"/>
        <path d="M425,975L450,950L400,900L350,950L375,975L400,950L425,975Z" style="fill:rgb(230,230,230);fill-rule:nonzero;"/>
        <path d="M600,800L625,825L800,650L975,825L1000,800L800,600L600,800Z" style="fill:rgb(230,230,230);fill-rule:nonzero;"/>
        <path d="M650,850L675,875L800,750L925,875L950,850L800,700L650,850Z" style="fill:rgb(230,230,230);fill-rule:nonzero;"/>
        <path d="M700,900L725,925L800,850L875,925L900,900L800,800L700,900Z" style="fill:rgb(230,230,230);fill-rule:nonzero;"/>
        <path d="M750,950L775,975L800,950L825,975L850,950L800,900L750,950Z" style="fill:rgb(230,230,230);fill-rule:nonzero;"/>
        <path d="M200,850L375,1025L400,1000L200,800L0,1000L25,1025L200,850Z" style="fill:rgb(230,230,230);fill-rule:nonzero;"/>
        <path d="M325,1075L350,1050L200,900L50,1050L75,1075L200,950L325,1075Z" style="fill:rgb(230,230,230);fill-rule:nonzero;"/>
        <path d="M275,1125L300,1100L200,1000L100,1100L125,1125L200,1050L275,1125Z" style="fill:rgb(230,230,230);fill-rule:nonzero;"/>
        <path d="M225,1175L250,1150L200,1100L150,1150L175,1175L200,1150L225,1175Z" style="fill:rgb(230,230,230);fill-rule:nonzero;"/>
        <path d="M400,1000L425,1025L600,850L775,1025L800,1000L600,800L400,1000Z" style="fill:rgb(230,230,230);fill-rule:nonzero;"/>
        <path d="M450,1050L475,1075L600,950L725,1075L750,1050L600,900L450,1050Z" style="fill:rgb(230,230,230);fill-rule:nonzero;"/>
        <path d="M500,1100L525,1125L600,1050L675,1125L700,1100L600,1000L500,1100Z" style="fill:rgb(230,230,230);fill-rule:nonzero;"/>
        <path d="M550,1150L575,1175L600,1150L625,1175L650,1150L600,1100L550,1150Z" style="fill:rgb(230,230,230);fill-rule:nonzero;"/>
        <path d="M800,1000L825,1025L1000,850L1175,1025L1200,1000L1000,800L800,1000Z" style="fill:rgb(230,230,230);fill-rule:nonzero;"/>
        <path d="M850,1050L875,1075L1000,950L1125,1075L1150,1050L1000,900L850,1050Z" style="fill:rgb(230,230,230);fill-rule:nonzero;"/>
        <path d="M900,1100L925,1125L1000,1050L1075,1125L1100,1100L1000,1000L900,1100Z" style="fill:rgb(230,230,230);fill-rule:nonzero;"/>
        <path d="M950,1150L975,1175L1000,1150L1025,1175L1050,1150L1000,1100L950,1150Z" style="fill:rgb(230,230,230);fill-rule:nonzero;"/>
        <path d="M1025,825L1200,650L1200,600L1000,800L1025,825Z" style="fill:rgb(230,230,230);fill-rule:nonzero;"/>
        <path d="M1075,875L1200,750L1200,700L1050,850L1075,875Z" style="fill:rgb(230,230,230);fill-rule:nonzero;"/>
        <path d="M1125,925L1200,850L1200,800L1100,900L1125,925Z" style="fill:rgb(230,230,230);fill-rule:nonzero;"/>
        <path d="M1175,975L1200,950L1200,900L1150,950L1175,975Z" style="fill:rgb(230,230,230);fill-rule:nonzero;"/>
        <path d="M0,1000L0,1050L150,1200L200,1200L0,1000Z" style="fill:rgb(230,230,230);fill-rule:nonzero;"/>
        <path d="M0,1150L50,1200L100,1200L0,1100L0,1150Z" style="fill:rgb(230,230,230);fill-rule:nonzero;"/>
        <path d="M400,1000L200,1200L250,1200L400,1050L550,1200L600,1200L400,1000Z" style="fill:rgb(230,230,230);fill-rule:nonzero;"/>
        <path d="M300,1200L350,1200L400,1150L450,1200L500,1200L400,1100L300,1200Z" style="fill:rgb(230,230,230);fill-rule:nonzero;"/>
        <path d="M800,1000L600,1200L650,1200L800,1050L950,1200L1000,1200L800,1000Z" style="fill:rgb(230,230,230);fill-rule:nonzero;"/>
        <path d="M700,1200L750,1200L800,1150L850,1200L900,1200L800,1100L700,1200Z" style="fill:rgb(230,230,230);fill-rule:nonzero;"/>
        <path d="M1000,1200L1050,1200L1200,1050L1200,1000L1000,1200Z" style="fill:rgb(230,230,230);fill-rule:nonzero;"/>
        <path d="M1150,1200L1200,1150L1200,1100L1100,1200L1150,1200Z" style="fill:rgb(230,230,230);fill-rule:nonzero;"/>
    </g>
</svg>
